<?xml version="1.0" encoding="UTF-8" standalone="no"?>
<!DOCTYPE svg PUBLIC "-//W3C//DTD SVG 1.1//EN" "http://www.w3.org/Graphics/SVG/1.1/DTD/svg11.dtd">
<svg width="100%" height="100%" viewBox="0 0 1000 500" version="1.1" xmlns="http://www.w3.org/2000/svg" xmlns:xlink="http://www.w3.org/1999/xlink" xml:space="preserve" xmlns:serif="http://www.serif.com/" style="fill-rule:evenodd;clip-rule:evenodd;stroke-linecap:round;stroke-linejoin:round;stroke-miterlimit:1.5;">
    <g id="dagger.svg" transform="matrix(6.12323e-17,1,-1,6.12323e-17,500,250)">
        <g transform="matrix(1,0,0,1,-500,-500)">
            <g id="Ebene1">
                <g transform="matrix(1.14062,0,0,1,-70.3103,-2.16844)">
                    <path d="M500,975.974L459.765,496.866C460.884,492.337 461.872,487.843 462.69,483.44L500,603.142C500,603.142 523.739,529.049 532.793,500C534.178,495.556 535.804,490.267 537.53,484.608C538.303,488.637 539.215,492.737 540.235,496.866L500,975.974Z" style="fill:url(#_Linear1);"/>
                </g>
                <g id="Ebene2" transform="matrix(1,0,0,1,8.37901,8.85125)">
                    <path d="M445.674,419.998C481.868,446.052 418.586,576.69 418.653,576.613C418.731,576.522 483.986,724.566 438.552,786.298C415.872,817.113 491.621,967.123 491.621,967.123" style="fill:url(#_Linear2);"/>
                    <g>
                        <clipPath id="_clip3">
                            <path d="M445.674,419.998C481.868,446.052 418.586,576.69 418.653,576.613C418.731,576.522 483.986,724.566 438.552,786.298C415.872,817.113 491.621,967.123 491.621,967.123"/>
                        </clipPath>
                        <g clip-path="url(#_clip3)">
                            <g transform="matrix(1,0,0,1,-8.37901,-8.85125)">
                                <path d="M459.765,496.866L500,975.974C500,975.974 424.251,825.965 446.931,795.149C492.365,733.418 427.11,585.373 427.032,585.464C426.992,585.51 449.196,539.658 459.765,496.866Z" style="fill:none;"/>
                            </g>
                            <g transform="matrix(1,0,0,1,-8.37901,-8.85125)">
                                <path d="M454.053,428.849C466.53,437.83 467.186,459.241 462.69,483.44L457.144,465.645L454.053,428.849Z" style="fill:rgb(228,228,228);"/>
                            </g>
                            <g transform="matrix(1,0,0,1,-8.37901,-8.85125)">
                                <path d="M462.69,483.44L457.144,465.645L455.712,448.598L464.481,448.598C466.018,458.449 465.085,470.549 462.69,483.44Z"/>
                            </g>
                        </g>
                    </g>
                    <path d="M445.674,419.998C481.868,446.052 418.586,576.69 418.653,576.613C418.731,576.522 483.986,724.566 438.552,786.298C415.872,817.113 491.621,967.123 491.621,967.123" style="fill:none;stroke:black;stroke-width:14.71px;"/>
                    <g transform="matrix(-1,0,0,1,983.242,0)">
                        <path d="M445.674,419.998C481.868,446.052 418.586,576.69 418.653,576.613C418.731,576.522 483.986,724.566 438.552,786.298C415.872,817.113 491.621,967.123 491.621,967.123" style="fill:url(#_Linear4);"/>
                        <g>
                            <clipPath id="_clip5">
                                <path d="M445.674,419.998C481.868,446.052 418.586,576.69 418.653,576.613C418.731,576.522 483.986,724.566 438.552,786.298C415.872,817.113 491.621,967.123 491.621,967.123"/>
                            </clipPath>
                            <g clip-path="url(#_clip5)">
                                <g transform="matrix(-1,0,0,1,991.621,-8.85125)">
                                    <path d="M540.235,496.866C550.804,539.658 573.008,585.51 572.968,585.464C572.89,585.373 507.635,733.418 553.069,795.149C575.749,825.965 500,975.974 500,975.974L540.235,496.866Z" style="fill:none;"/>
                                </g>
                                <g transform="matrix(-1,0,0,1,991.621,-8.85125)">
                                    <path d="M542.692,467.601C540.961,473.33 539.199,479.142 537.53,484.608C532.796,459.932 533.269,437.975 545.947,428.849L542.692,467.601Z" style="fill:rgb(228,228,228);"/>
                                </g>
                                <g transform="matrix(-1,0,0,1,991.621,-8.85125)">
                                    <path d="M542.692,467.601C540.961,473.33 539.199,479.142 537.53,484.608C534.973,471.281 533.936,458.746 535.519,448.598L544.288,448.598L542.692,467.601Z"/>
                                </g>
                            </g>
                        </g>
                        <path d="M445.674,419.998C481.868,446.052 418.586,576.69 418.653,576.613C418.731,576.522 483.986,724.566 438.552,786.298C415.872,817.113 491.621,967.123 491.621,967.123" style="fill:none;stroke:black;stroke-width:14.71px;"/>
                    </g>
                </g>
                <g id="Ebene11" serif:id="Ebene1">
                    <g transform="matrix(1.25951,0,0,1.25951,-95.3315,-603.07)">
                        <circle cx="472.671" cy="554.326" r="54.326"/>
                    </g>
                    <g transform="matrix(0.955989,0,0,3.7893,48.1319,-1838.53)">
                        <circle cx="472.671" cy="554.326" r="54.326"/>
                    </g>
                    <g transform="matrix(1.2255,0,0,1.3666,-110.268,-215.591)">
                        <path d="M618.931,486.014L377.018,486.014L437.496,428.849L558.453,428.849L618.931,486.014Z"/>
                    </g>
                    <g transform="matrix(-1.2476,-1.52786e-16,1.75977e-16,-1.43696,1084.88,1289.82)">
                        <path d="M468.804,454.068L523.648,594.862L413.96,594.862C413.96,594.862 428.263,556.473 435.698,537.386C444.839,513.921 468.804,454.068 468.804,454.068Z"/>
                    </g>
                    <g id="Ebene21" serif:id="Ebene2" transform="matrix(1.17041,0,0,1.02696,-75.4,-2.47284)">
                        <path d="M445.674,419.998C481.868,446.052 418.586,576.69 418.653,576.613C418.731,576.522 483.986,724.566 438.552,786.298C415.872,817.113 491.621,967.123 491.621,967.123" style="fill:none;stroke:black;stroke-width:13.36px;"/>
                        <g transform="matrix(-1,0,0,1,983.242,0)">
                            <path d="M445.674,419.998C481.868,446.052 418.586,576.69 418.653,576.613C418.731,576.522 483.986,724.566 438.552,786.298C415.872,817.113 491.621,967.123 491.621,967.123" style="fill:none;stroke:black;stroke-width:13.36px;"/>
                        </g>
                    </g>
                </g>
                <g transform="matrix(1,0,0,1,27.3291,-459.22)">
                    <circle cx="472.671" cy="554.326" r="54.326" style="fill:rgb(148,0,198);"/>
                </g>
                <g transform="matrix(0.394118,0,0,0.394118,313.712,260.12)">
                    <circle cx="472.671" cy="554.326" r="54.326" style="fill:rgb(148,0,198);"/>
                </g>
                <g transform="matrix(1,0,0,0.726024,-1.77309,131.559)">
                    <rect x="497.425" y="522.589" width="8.696" height="47.539" style="fill:rgb(148,0,198);"/>
                </g>
                <g transform="matrix(1,0,0,0.726024,-1.77309,178.941)">
                    <rect x="497.425" y="522.589" width="8.696" height="47.539" style="fill:rgb(148,0,198);"/>
                </g>
                <g transform="matrix(0.694937,0,0,3.0717,171.524,-1440.74)">
                    <circle cx="472.671" cy="554.326" r="54.326" style="fill:rgb(148,0,198);stroke:rgb(148,0,198);stroke-width:0.45px;"/>
                </g>
                <g transform="matrix(1.2255,0,0,1,-110.268,-37.4162)">
                    <path d="M618.931,486.014L377.018,486.014L437.496,428.849L558.453,428.849L618.931,486.014Z"/>
                </g>
                <g transform="matrix(1,0,0,1,2.02548,-48.9761)">
                    <path d="M618.931,486.014L377.018,486.014L437.496,428.849L558.453,428.849L618.931,486.014Z" style="fill:rgb(148,0,198);"/>
                </g>
            </g>
        </g>
    </g>
    <defs>
        <linearGradient id="_Linear1" x1="0" y1="0" x2="1" y2="0" gradientUnits="userSpaceOnUse" gradientTransform="matrix(-1.03384e-13,-170.91,170.91,-1.03384e-13,500,816.579)"><stop offset="0" style="stop-color:rgb(26,26,26);stop-opacity:1"/><stop offset="1" style="stop-color:rgb(187,187,187);stop-opacity:1"/></linearGradient>
        <linearGradient id="_Linear2" x1="0" y1="0" x2="1" y2="0" gradientUnits="userSpaceOnUse" gradientTransform="matrix(145.937,-330.305,330.305,145.937,418.653,967.123)"><stop offset="0" style="stop-color:white;stop-opacity:1"/><stop offset="1" style="stop-color:rgb(77,77,77);stop-opacity:1"/></linearGradient>
        <linearGradient id="_Linear4" x1="0" y1="0" x2="1" y2="0" gradientUnits="userSpaceOnUse" gradientTransform="matrix(-145.937,-330.305,330.305,-145.937,564.589,967.123)"><stop offset="0" style="stop-color:white;stop-opacity:1"/><stop offset="1" style="stop-color:rgb(77,77,77);stop-opacity:1"/></linearGradient>
    </defs>
</svg>
