<?xml version="1.0" encoding="UTF-8" standalone="no"?>
<!DOCTYPE svg PUBLIC "-//W3C//DTD SVG 1.1//EN" "http://www.w3.org/Graphics/SVG/1.1/DTD/svg11.dtd">
<svg width="100%" height="100%" viewBox="0 0 1000 500" version="1.1" xmlns="http://www.w3.org/2000/svg" xmlns:xlink="http://www.w3.org/1999/xlink" xml:space="preserve" xmlns:serif="http://www.serif.com/" style="fill-rule:evenodd;clip-rule:evenodd;stroke-linejoin:round;stroke-miterlimit:2;">
    <g id="knife.svg" transform="matrix(6.12323e-17,-1,1,6.12323e-17,500,250)">
        <g transform="matrix(1,0,0,1,-200,-500)">
            <g id="Ebene1" transform="matrix(1.33333,0,0,1.41903,-2.08225,-413.423)">
                <g transform="matrix(1.18723,0,0,1.31253,-28.3765,-235.946)">
                    <path d="M192.348,740.348C192.348,730.782 183.21,723.016 171.955,723.016L131.169,723.016C119.913,723.016 110.776,730.782 110.776,740.348L110.776,921.307C110.776,930.873 119.913,938.639 131.169,938.639L171.955,938.639C183.21,938.639 192.348,930.873 192.348,921.307L192.348,740.348Z"/>
                </g>
                <g transform="matrix(1,0,0,1.21996,0,-159.032)">
                    <path d="M192.348,738.722C192.348,730.053 183.21,723.016 171.955,723.016L131.169,723.016C119.913,723.016 110.776,730.053 110.776,738.722L110.776,922.933C110.776,931.601 119.913,938.639 131.169,938.639L171.955,938.639C183.21,938.639 192.348,931.601 192.348,922.933L192.348,738.722Z" style="fill:rgb(120,54,0);"/>
                </g>
            </g>
            <g id="Ebene11" serif:id="Ebene1" transform="matrix(3.69858e-17,0.47144,-1.23123,5.30514e-17,1252.13,546.171)">
                <g transform="matrix(1.45858,7.61893e-19,-5.18243e-18,1.27119,-69.5024,-201.6)">
                    <path d="M192.348,731.975C192.348,727.03 183.21,723.016 171.955,723.016L131.169,723.016C119.913,723.016 110.776,727.03 110.776,731.975L110.776,929.68C110.776,934.625 119.913,938.639 131.169,938.639L171.955,938.639C183.21,938.639 192.348,934.625 192.348,929.68L192.348,731.975Z"/>
                </g>
                <g transform="matrix(1,0,0,1.21996,0,-159.032)">
                    <path d="M192.348,729.416C192.348,725.884 183.21,723.016 171.955,723.016L131.169,723.016C119.913,723.016 110.776,725.884 110.776,729.416L110.776,932.239C110.776,935.771 119.913,938.639 131.169,938.639L171.955,938.639C183.21,938.639 192.348,935.771 192.348,932.239L192.348,729.416Z" style="fill:rgb(120,54,0);"/>
                </g>
            </g>
            <g id="Ebene2" transform="matrix(1.1693,0,0,1.07621,-33.8599,-44.9301)">
                <g transform="matrix(0.541758,0,0,1.55754,56.9021,-328.713)">
                    <path d="M264.136,237.851L440,589.578L88.272,589.578L264.136,237.851Z" style="fill:url(#_Linear1);"/>
                </g>
                <g transform="matrix(0.388642,0,0,1.44725,97.3456,-263.688)">
                    <g id="Ebene21" serif:id="Ebene2">
                        <path d="M264.136,237.851L440,589.578L88.272,589.578L264.136,237.851Z" style="fill:url(#_Linear2);"/>
                    </g>
                </g>
            </g>
        </g>
    </g>
    <defs>
        <linearGradient id="_Linear1" x1="0" y1="0" x2="1" y2="0" gradientUnits="userSpaceOnUse" gradientTransform="matrix(2.15371e-14,-351.727,351.727,2.15371e-14,264.136,589.578)"><stop offset="0" style="stop-color:rgb(144,144,144);stop-opacity:1"/><stop offset="1" style="stop-color:black;stop-opacity:1"/></linearGradient>
        <linearGradient id="_Linear2" x1="0" y1="0" x2="1" y2="0" gradientUnits="userSpaceOnUse" gradientTransform="matrix(-4.00797e-13,382.079,-382.079,-4.00797e-13,264.136,237.851)"><stop offset="0" style="stop-color:white;stop-opacity:1"/><stop offset="1" style="stop-color:rgb(179,179,179);stop-opacity:1"/></linearGradient>
    </defs>
</svg>
