<?xml version="1.0" encoding="UTF-8" standalone="no"?>
<!DOCTYPE svg PUBLIC "-//W3C//DTD SVG 1.1//EN" "http://www.w3.org/Graphics/SVG/1.1/DTD/svg11.dtd">
<svg width="100%" height="100%" viewBox="0 0 1000 500" version="1.1" xmlns="http://www.w3.org/2000/svg" xmlns:xlink="http://www.w3.org/1999/xlink" xml:space="preserve" xmlns:serif="http://www.serif.com/" style="fill-rule:evenodd;clip-rule:evenodd;">
    <g id="long_sword.svg" transform="matrix(2.39761e-17,-0.391559,0.391559,2.39761e-17,500,250)">
        <g transform="matrix(1,0,0,1,-366.5,-1452)">
            <g>
                <path d="M365.25,261.717C364.211,262.211 363.546,263.32 363.253,265.034C338.108,414.407 320.282,562.781 316.602,713.203C305.995,1146.55 295.761,1579.91 285.9,2013.27C285.89,2013.64 286.072,2013.85 286.435,2013.92C310.905,2018.23 333.157,2027.68 353.201,2042.27C353.756,2042.67 354.119,2042.54 354.27,2041.88C354.32,2041.68 354.34,2041.32 354.34,2040.82C354.512,1961.25 354.643,1881.68 354.724,1802.12C354.794,1722.97 355.439,1643.82 355.47,1564.67C355.5,1518.4 355.49,1472.14 355.45,1425.88C355.45,1423.6 355.752,1420.95 355.752,1418.48C355.732,1363.11 355.712,1307.74 355.702,1252.38C355.692,1247.64 356.589,1242.97 356.649,1238.23C356.831,1224.54 356.478,1208.71 356.478,1197.17C356.488,1070.04 356.478,942.923 356.458,815.792C356.458,791.856 358.101,763.454 357.244,747.735C356.589,735.888 356.528,724.041 357.053,712.194C359.765,650.459 362.669,588.724 365.764,526.998C365.703,527.008 365.744,527.008 365.875,526.998C365.945,526.998 365.986,527.039 365.996,527.109C366.228,529.731 366.389,532.352 366.48,534.984C368.002,579.377 370.725,623.72 372.701,668.083C374.062,698.573 374.637,729.072 374.435,759.582C374.274,782.379 374.304,805.175 374.294,827.982C374.294,829.736 374.001,831.773 374.001,833.689C374.032,888.669 373.8,943.649 373.78,998.629C373.78,1001.3 373.507,1004.44 373.507,1007.36C373.568,1129.38 373.296,1251.41 373.286,1373.44C373.286,1375.32 373.023,1377.46 373.023,1379.15L373.023,1605.92C373.023,1607.35 373.286,1609 373.286,1610.3C373.296,1662.44 373.296,1714.59 373.286,1766.74C373.286,1771.07 372.287,1775.29 372.287,1779.7C372.297,1868.98 372.287,1958.29 372.257,2047.62C372.257,2047.9 372.58,2048.06 372.802,2047.88C393.078,2031.38 416.015,2020.37 441.595,2014.86C441.786,2014.82 441.927,2014.65 441.917,2014.45C432.732,1567.82 423.214,1121.08 413.848,674.385C410.954,536.839 395.951,399.948 369.051,265.024C368.799,263.743 368.275,262.715 367.488,261.919" style="fill:none;fill-rule:nonzero;stroke:rgb(102,102,102);stroke-width:0.71px;"/>
                <path d="M367.024,2077.58C366.813,2077.84 366.409,2077.83 366.198,2077.57C357.133,2066.27 346.345,2057.48 333.863,2049.66C311.913,2035.92 287.796,2029.17 261.904,2028.53C232.957,2027.8 204.907,2033.8 176.454,2038.12C158.981,2040.77 141.418,2041.83 123.763,2041.3C100.261,2040.61 78.24,2034.68 57.692,2023.5C48.366,2018.43 38.404,2012.11 27.787,2010.34C27.424,2010.28 27.243,2010.43 27.243,2010.8C27.273,2013.54 27.677,2015.99 28.443,2018.14C35.642,2038.39 47.932,2059.49 63.399,2074.47C91.106,2101.28 127.04,2106.29 164.093,2106.61C190.409,2106.84 216.583,2106.7 242.727,2110.23C285.749,2116.03 324.678,2132.77 356.891,2162.09C359.15,2164.16 362.296,2168.13 366.319,2174.02C366.55,2174.37 366.782,2174.36 367.014,2174.01C370.997,2167.97 375.413,2162.86 380.242,2158.66C415.753,2127.85 458.947,2112.42 505.639,2108.45C528.274,2106.53 551.01,2107 573.686,2106.49C609.62,2105.66 642.388,2100.41 668.905,2075.43C684.453,2060.8 696.663,2040.34 704.235,2020.45C705.354,2017.52 705.949,2014.35 706.009,2010.98C706.019,2010.54 705.616,2010.21 705.192,2010.29C695.019,2012.26 685.542,2018.04 676.588,2023.01C647.631,2039.08 616.728,2043.2 584.031,2040.92C563.109,2039.47 542.43,2036 521.771,2032.52C495.093,2028.02 466.347,2025.93 439.81,2032.56C411.639,2039.6 385.909,2055.14 367.024,2077.58" style="fill:none;fill-rule:nonzero;stroke:rgb(128,102,21);stroke-width:0.71px;"/>
                <path d="M410.026,2574.71C411.045,2569.88 410.934,2564.76 409.683,2559.34C409.068,2556.66 407.627,2553.15 405.378,2548.83C385.586,2510.77 375.877,2469.82 377.409,2426.87C379.769,2360.65 404.662,2297.93 417.679,2233.14C421.813,2212.6 424.071,2191.85 424.464,2170.88C424.596,2163.86 424.021,2156.98 422.74,2150.24C422.67,2149.86 422.256,2149.67 421.924,2149.86C412.991,2154.93 404.521,2160.67 396.516,2167.07C386.806,2174.83 380.444,2182.49 375.655,2193.35C372.902,2199.56 366.903,2202.32 361.015,2197.88C358.343,2195.86 357.305,2192.26 355.772,2189.26C351.427,2180.76 345.448,2173.63 337.856,2167.86" style="fill:none;fill-rule:nonzero;stroke:rgb(54,29,0);stroke-width:0.71px;"/>
                <path d="M337.856,2167.86C329.548,2161.24 320.866,2155.3 311.822,2150.06C311.379,2149.81 310.804,2150.07 310.713,2150.58C309.534,2156.84 308.939,2162.94 308.919,2168.87C308.747,2222.82 319.798,2271.2 330.868,2328.69C341.001,2381.32 347.353,2435.1 339.559,2488.35C338.38,2496.45 337.009,2503.02 335.446,2508.08C330.757,2523.23 321.643,2536.49 315.16,2550.05C307.507,2566.06 309.453,2584.34 317.287,2600.42C335.436,2637.71 384.225,2635.97 403.069,2600.68C407.092,2593.15 409.411,2584.5 410.026,2574.71" style="fill:none;fill-rule:nonzero;stroke:rgb(75,39,0);stroke-width:0.71px;"/>
                <path d="M337.856,2167.86C340.104,2170.64 341.394,2173.24 341.747,2175.67C352.213,2247.77 359.452,2320.21 363.465,2392.95C364.544,2412.6 364.917,2432.26 364.564,2451.93C364.322,2466.02 363.173,2481.61 359.805,2495.91C354.603,2518.06 343.24,2538.64 343.562,2561.83C343.774,2577.15 354.905,2591.02 370.352,2593.36C374.939,2594.05 379.859,2593.49 385.112,2591.71C394.358,2588.56 402.666,2582.9 410.026,2574.71" style="fill:none;fill-rule:nonzero;stroke:rgb(129,68,0);stroke-width:0.71px;"/>
            </g>
            <path d="M365.25,261.717C365.119,260.104 365.351,258.672 365.925,257.412C366.167,256.897 366.349,256.918 366.47,257.472L367.488,261.919C368.275,262.715 368.799,263.743 369.051,265.024C395.951,399.948 410.954,536.839 413.848,674.385C423.214,1121.08 432.732,1567.82 441.917,2014.45C441.927,2014.65 441.786,2014.82 441.595,2014.86C416.015,2020.37 393.078,2031.38 372.802,2047.88C372.58,2048.06 372.257,2047.9 372.257,2047.62C372.287,1958.29 372.297,1868.98 372.287,1779.7C372.287,1775.29 373.286,1771.07 373.286,1766.74C373.296,1714.59 373.296,1662.44 373.286,1610.3C373.286,1609 373.023,1607.35 373.023,1605.92L373.023,1379.15C373.023,1377.46 373.286,1375.32 373.286,1373.44C373.296,1251.41 373.568,1129.38 373.507,1007.36C373.507,1004.44 373.78,1001.3 373.78,998.629C373.8,943.649 374.032,888.669 374.001,833.689C374.001,831.773 374.294,829.736 374.294,827.982C374.304,805.175 374.274,782.379 374.435,759.582C374.637,729.072 374.062,698.573 372.701,668.083C370.725,623.72 368.002,579.377 366.48,534.984C366.389,532.352 366.228,529.731 365.996,527.109C365.986,527.039 365.945,526.998 365.875,526.998C365.744,527.008 365.703,527.008 365.764,526.998C362.669,588.724 359.765,650.459 357.053,712.194C356.528,724.041 356.589,735.888 357.244,747.735C358.101,763.454 356.458,791.856 356.458,815.792C356.478,942.923 356.488,1070.04 356.478,1197.17C356.478,1208.71 356.831,1224.54 356.649,1238.23C356.589,1242.97 355.692,1247.64 355.702,1252.38C355.712,1307.74 355.732,1363.11 355.752,1418.48C355.752,1420.95 355.45,1423.6 355.45,1425.88C355.49,1472.14 355.5,1518.4 355.47,1564.67C355.439,1643.82 354.794,1722.97 354.724,1802.12C354.643,1881.68 354.512,1961.25 354.34,2040.82C354.34,2041.32 354.32,2041.68 354.27,2041.88C354.119,2042.54 353.756,2042.67 353.201,2042.27C333.157,2027.68 310.905,2018.23 286.435,2013.92C286.072,2013.85 285.89,2013.64 285.9,2013.27C295.761,1579.91 305.995,1146.55 316.602,713.203C320.282,562.781 338.108,414.407 363.253,265.034C363.546,263.32 364.211,262.211 365.25,261.717Z"/>
            <path d="M266.784,2011.75C267.056,2011.76 267.288,2011.54 267.298,2011.27C278.137,1571.47 288.794,1131.81 299.29,692.281C300.53,640.588 303.555,588.996 308.374,537.514C319.163,422.19 335.92,307.441 356.367,193.448C357.426,187.58 362.568,183.517 368.728,185.685C373.104,187.227 374.627,191.472 375.594,196.191C392.2,276.447 405.449,356.533 415.36,436.437C423.86,504.938 429.566,574.87 430.978,644.641C440.193,1100.27 449.57,1555.88 459.108,2011.46C459.118,2011.91 459.501,2012.26 459.955,2012.23C479.082,2010.97 498.168,2011.88 517.214,2014.97C532.489,2017.44 547.794,2019.78 563.109,2021.97C594.194,2026.41 627.446,2027.1 656.564,2013.98C664.933,2010.21 673.1,2006.05 681.075,2001.49C688.667,1997.14 696.562,1994.54 704.749,1993.68C714.428,1992.67 722.292,1997.86 722.786,2008.04C723.21,2016.89 721.042,2024.35 717.201,2033.26C697.56,2078.81 664.57,2111.12 614.258,2119.71C594.718,2123.04 575.481,2123.73 556.052,2123.47C554.751,2123.45 552.906,2123.77 551.353,2123.75C512.737,2123.26 474.867,2126.34 438.802,2141.43C438.257,2141.66 437.965,2142.25 438.116,2142.82C440.234,2150.96 441.262,2159.31 441.212,2167.86C440.849,2230.37 420.905,2288.71 406.124,2348.59C397.312,2384.27 391.343,2421.89 395.134,2458.5C398.028,2486.39 405.923,2512.75 418.818,2537.61C421.692,2543.13 423.739,2547.59 424.969,2550.98C425.977,2553.75 426.642,2557.37 426.975,2561.83C428.376,2580.84 424.021,2600.61 413.212,2616.31C397.433,2639.24 367.69,2650.36 340.941,2641.85C314.424,2633.41 298.685,2609.92 294.43,2583.19C291.93,2567.46 294.642,2552.26 302.103,2538.32C308.122,2527.08 315.16,2516.13 319.142,2503.95C320.503,2499.81 321.673,2494.47 322.671,2487.97C333.964,2413.64 315.906,2340.9 302.395,2268.4C296.89,2238.84 293.17,2209.96 292.212,2179.2C291.809,2166.4 292.081,2154.63 295.489,2142.95C295.68,2142.29 295.469,2141.84 294.833,2141.56C258.587,2126.26 220.364,2123.32 181.486,2123.64C160.635,2123.81 139.038,2123.3 118.47,2119.66C81.618,2113.12 52.923,2094.35 32.385,2063.32C23.664,2050.17 17.019,2036.86 12.442,2023.41C10.204,2016.84 9.226,2006.94 12.523,2000.88C22.555,1982.42 55.837,2003.45 67.513,2009.61C84.986,2018.84 103.638,2023.82 123.471,2024.56C153.275,2025.66 182.978,2020.47 212.268,2015.56C230.396,2012.52 248.565,2011.25 266.784,2011.75ZM365.25,261.717C364.211,262.211 363.546,263.32 363.253,265.034C338.108,414.407 320.282,562.781 316.602,713.203C305.995,1146.55 295.761,1579.91 285.9,2013.27C285.89,2013.64 286.072,2013.85 286.435,2013.92C310.905,2018.23 333.157,2027.68 353.201,2042.27C353.756,2042.67 354.119,2042.54 354.27,2041.88C354.32,2041.68 354.34,2041.32 354.34,2040.82C354.512,1961.25 354.643,1881.68 354.724,1802.12C354.794,1722.97 355.439,1643.82 355.47,1564.67C355.5,1518.4 355.49,1472.14 355.45,1425.88C355.45,1423.6 355.752,1420.95 355.752,1418.48C355.732,1363.11 355.712,1307.74 355.702,1252.38C355.692,1247.64 356.589,1242.97 356.649,1238.23C356.831,1224.54 356.478,1208.71 356.478,1197.17C356.488,1070.04 356.478,942.923 356.458,815.792C356.458,791.856 358.101,763.454 357.244,747.735C356.589,735.888 356.528,724.041 357.053,712.194C359.765,650.459 362.669,588.724 365.764,526.998C365.703,527.008 365.744,527.008 365.875,526.998C365.945,526.998 365.986,527.039 365.996,527.109C366.228,529.731 366.389,532.352 366.48,534.984C368.002,579.377 370.725,623.72 372.701,668.083C374.062,698.573 374.637,729.072 374.435,759.582C374.274,782.379 374.304,805.175 374.294,827.982C374.294,829.736 374.001,831.773 374.001,833.689C374.032,888.669 373.8,943.649 373.78,998.629C373.78,1001.3 373.507,1004.44 373.507,1007.36C373.568,1129.38 373.296,1251.41 373.286,1373.44C373.286,1375.32 373.023,1377.46 373.023,1379.15L373.023,1605.92C373.023,1607.35 373.286,1609 373.286,1610.3C373.296,1662.44 373.296,1714.59 373.286,1766.74C373.286,1771.07 372.287,1775.29 372.287,1779.7C372.297,1868.98 372.287,1958.29 372.257,2047.62C372.257,2047.9 372.58,2048.06 372.802,2047.88C393.078,2031.38 416.015,2020.37 441.595,2014.86C441.786,2014.82 441.927,2014.65 441.917,2014.45C432.732,1567.82 423.214,1121.08 413.848,674.385C410.954,536.839 395.951,399.948 369.051,265.024C368.799,263.743 368.275,262.715 367.488,261.919L366.47,257.472C366.349,256.918 366.167,256.897 365.925,257.412C365.351,258.672 365.119,260.104 365.25,261.717ZM367.024,2077.58C366.813,2077.84 366.409,2077.83 366.198,2077.57C357.133,2066.27 346.345,2057.48 333.863,2049.66C311.913,2035.92 287.796,2029.17 261.904,2028.53C232.957,2027.8 204.907,2033.8 176.454,2038.12C158.981,2040.77 141.418,2041.83 123.763,2041.3C100.261,2040.61 78.24,2034.68 57.692,2023.5C48.366,2018.43 38.404,2012.11 27.787,2010.34C27.424,2010.28 27.243,2010.43 27.243,2010.8C27.273,2013.54 27.677,2015.99 28.443,2018.14C35.642,2038.39 47.932,2059.49 63.399,2074.47C91.106,2101.28 127.04,2106.29 164.093,2106.61C190.409,2106.84 216.583,2106.7 242.727,2110.23C285.749,2116.03 324.678,2132.77 356.891,2162.09C359.15,2164.16 362.296,2168.13 366.319,2174.02C366.55,2174.37 366.782,2174.36 367.014,2174.01C370.997,2167.97 375.413,2162.86 380.242,2158.66C415.753,2127.85 458.947,2112.42 505.639,2108.45C528.274,2106.53 551.01,2107 573.686,2106.49C609.62,2105.66 642.388,2100.41 668.905,2075.43C684.453,2060.8 696.663,2040.34 704.235,2020.45C705.354,2017.52 705.949,2014.35 706.009,2010.98C706.019,2010.54 705.616,2010.21 705.192,2010.29C695.019,2012.26 685.542,2018.04 676.588,2023.01C647.631,2039.08 616.728,2043.2 584.031,2040.92C563.109,2039.47 542.43,2036 521.771,2032.52C495.093,2028.02 466.347,2025.93 439.81,2032.56C411.639,2039.6 385.909,2055.14 367.024,2077.58ZM410.026,2574.71C411.045,2569.88 410.934,2564.76 409.683,2559.34C409.068,2556.66 407.627,2553.15 405.378,2548.83C385.586,2510.77 375.877,2469.82 377.409,2426.87C379.769,2360.65 404.662,2297.93 417.679,2233.14C421.813,2212.6 424.071,2191.85 424.464,2170.88C424.596,2163.86 424.021,2156.98 422.74,2150.24C422.67,2149.86 422.256,2149.67 421.924,2149.86C412.991,2154.93 404.521,2160.67 396.516,2167.07C386.806,2174.83 380.444,2182.49 375.655,2193.35C372.902,2199.56 366.903,2202.32 361.015,2197.88C358.343,2195.86 357.305,2192.26 355.772,2189.26C351.427,2180.76 345.448,2173.63 337.856,2167.86C329.548,2161.24 320.866,2155.3 311.822,2150.06C311.379,2149.81 310.804,2150.07 310.713,2150.58C309.534,2156.84 308.939,2162.94 308.919,2168.87C308.747,2222.82 319.798,2271.2 330.868,2328.69C341.001,2381.32 347.353,2435.1 339.559,2488.35C338.38,2496.45 337.009,2503.02 335.446,2508.08C330.757,2523.23 321.643,2536.49 315.16,2550.05C307.507,2566.06 309.453,2584.34 317.287,2600.42C335.436,2637.71 384.225,2635.97 403.069,2600.68C407.092,2593.15 409.411,2584.5 410.026,2574.71Z" style="fill-rule:nonzero;"/>
            <g transform="matrix(1,0,0,1.00508,0,-10.3936)">
                <path d="M365.25,261.717C365.698,261.28 366.61,260.894 367.083,261.305C367.716,261.856 368.893,263.63 369.051,265.024C376.845,333.871 410.954,536.839 413.848,674.385C423.214,1121.08 432.732,1567.82 441.917,2014.45C441.927,2014.65 441.786,2014.82 441.595,2014.86C416.015,2020.37 393.078,2031.38 372.802,2047.88C372.58,2048.06 372.257,2047.9 372.257,2047.62C372.287,1958.29 372.297,1868.98 372.287,1779.7C372.287,1775.29 373.286,1771.07 373.286,1766.74C373.296,1714.59 373.296,1662.44 373.286,1610.3C373.286,1609 373.023,1607.35 373.023,1605.92L373.023,1379.15C373.023,1377.46 373.286,1375.32 373.286,1373.44C373.296,1251.41 373.568,1129.38 373.507,1007.36C373.507,1004.44 373.78,1001.3 373.78,998.629C373.8,943.649 374.032,888.669 374.001,833.689C374.001,831.773 374.294,829.736 374.294,827.982C374.304,805.175 374.274,782.379 374.435,759.582C374.637,729.072 374.062,698.573 372.701,668.083C370.725,623.72 368.002,579.377 366.48,534.984C366.389,532.352 366.228,529.731 365.996,527.109C365.986,527.039 365.945,526.998 365.875,526.998C365.744,527.008 365.703,527.008 365.764,526.998C362.669,588.724 359.765,650.459 357.053,712.194C356.528,724.041 356.589,735.888 357.244,747.735C358.101,763.454 356.458,791.856 356.458,815.792C356.478,942.923 356.488,1070.04 356.478,1197.17C356.478,1208.71 356.831,1224.54 356.649,1238.23C356.589,1242.97 355.692,1247.64 355.702,1252.38C355.712,1307.74 355.732,1363.11 355.752,1418.48C355.752,1420.95 355.45,1423.6 355.45,1425.88C355.49,1472.14 355.5,1518.4 355.47,1564.67C355.439,1643.82 354.794,1722.97 354.724,1802.12C354.643,1881.68 354.512,1961.25 354.34,2040.82C354.34,2041.32 354.32,2041.68 354.27,2041.88C354.119,2042.54 353.756,2042.67 353.201,2042.27C333.157,2027.68 310.905,2018.23 286.435,2013.92C286.072,2013.85 285.89,2013.64 285.9,2013.27C295.761,1579.91 305.995,1146.55 316.602,713.203C320.282,562.781 355.145,340.282 363.253,265.034C363.392,263.751 364.612,262.338 365.25,261.717Z" style="fill:url(#_Linear1);fill-rule:nonzero;"/>
            </g>
            <path d="M367.024,2077.58C385.909,2055.14 411.639,2039.6 439.81,2032.56C466.347,2025.93 495.093,2028.02 521.771,2032.52C542.43,2036 563.109,2039.47 584.031,2040.92C616.728,2043.2 647.631,2039.08 676.588,2023.01C685.542,2018.04 695.019,2012.26 705.192,2010.29C705.616,2010.21 706.019,2010.54 706.009,2010.98C705.949,2014.35 705.354,2017.52 704.235,2020.45C696.663,2040.34 684.453,2060.8 668.905,2075.43C642.388,2100.41 609.62,2105.66 573.686,2106.49C551.01,2107 528.274,2106.53 505.639,2108.45C458.947,2112.42 415.753,2127.85 380.242,2158.66C375.413,2162.86 370.997,2167.97 367.014,2174.01C366.782,2174.36 366.55,2174.37 366.319,2174.02C362.296,2168.13 359.15,2164.16 356.891,2162.09C324.678,2132.77 285.749,2116.03 242.727,2110.23C216.583,2106.7 190.409,2106.84 164.093,2106.61C127.04,2106.29 91.106,2101.28 63.399,2074.47C47.932,2059.49 35.642,2038.39 28.443,2018.14C27.677,2015.99 27.273,2013.54 27.243,2010.8C27.243,2010.43 27.424,2010.28 27.787,2010.34C38.404,2012.11 48.366,2018.43 57.692,2023.5C78.24,2034.68 100.261,2040.61 123.763,2041.3C141.418,2041.83 158.981,2040.77 176.454,2038.12C204.907,2033.8 232.957,2027.8 261.904,2028.53C287.796,2029.17 311.913,2035.92 333.863,2049.66C346.345,2057.48 357.133,2066.27 366.198,2077.57C366.409,2077.83 366.813,2077.84 367.024,2077.58Z" style="fill:rgb(255,204,41);fill-rule:nonzero;"/>
            <path d="M337.856,2167.86C340.104,2170.64 341.394,2173.24 341.747,2175.67C352.213,2247.77 359.452,2320.21 363.465,2392.95C364.544,2412.6 364.917,2432.26 364.564,2451.93C364.322,2466.02 363.173,2481.61 359.805,2495.91C354.603,2518.06 343.24,2538.64 343.562,2561.83C343.774,2577.15 354.905,2591.02 370.352,2593.36C374.939,2594.05 379.859,2593.49 385.112,2591.71C394.358,2588.56 402.666,2582.9 410.026,2574.71C409.411,2584.5 407.092,2593.15 403.069,2600.68C384.225,2635.97 335.436,2637.71 317.287,2600.42C309.453,2584.34 307.507,2566.06 315.16,2550.05C321.643,2536.49 330.757,2523.23 335.446,2508.08C337.009,2503.02 338.38,2496.45 339.559,2488.35C347.353,2435.1 341.001,2381.32 330.868,2328.69C319.798,2271.2 308.747,2222.82 308.919,2168.87C308.939,2162.94 309.534,2156.84 310.713,2150.58C310.804,2150.07 311.379,2149.81 311.822,2150.06C320.866,2155.3 329.548,2161.24 337.856,2167.86Z" style="fill:rgb(150,78,0);fill-rule:nonzero;"/>
            <path d="M410.026,2574.71C402.666,2582.9 394.358,2588.56 385.112,2591.71C379.859,2593.49 374.939,2594.05 370.352,2593.36C354.905,2591.02 343.774,2577.15 343.562,2561.83C343.24,2538.64 354.603,2518.06 359.805,2495.91C363.173,2481.61 364.322,2466.02 364.564,2451.93C364.917,2432.26 364.544,2412.6 363.465,2392.95C359.452,2320.21 352.213,2247.77 341.747,2175.67C341.394,2173.24 340.104,2170.64 337.856,2167.86C345.448,2173.63 351.427,2180.76 355.772,2189.26C357.305,2192.26 358.343,2195.86 361.015,2197.88C366.903,2202.32 372.902,2199.56 375.655,2193.35C380.444,2182.49 386.806,2174.83 396.516,2167.07C404.521,2160.67 412.991,2154.93 421.924,2149.86C422.256,2149.67 422.67,2149.86 422.74,2150.24C424.021,2156.98 424.596,2163.86 424.464,2170.88C424.071,2191.85 421.813,2212.6 417.679,2233.14C404.662,2297.93 379.769,2360.65 377.409,2426.87C375.877,2469.82 385.586,2510.77 405.378,2548.83C407.627,2553.15 409.068,2556.66 409.683,2559.34C410.934,2564.76 411.045,2569.88 410.026,2574.71Z" style="fill:rgb(107,58,0);fill-rule:nonzero;"/>
        </g>
    </g>
    <defs>
        <linearGradient id="_Linear1" x1="0" y1="0" x2="1" y2="0" gradientUnits="userSpaceOnUse" gradientTransform="matrix(115.566,0,0,115.566,308.917,1154.84)"><stop offset="0" style="stop-color:white;stop-opacity:1"/><stop offset="1" style="stop-color:rgb(48,48,48);stop-opacity:1"/></linearGradient>
    </defs>
</svg>
