<?xml version="1.0" encoding="UTF-8" standalone="no"?>
<!DOCTYPE svg PUBLIC "-//W3C//DTD SVG 1.1//EN" "http://www.w3.org/Graphics/SVG/1.1/DTD/svg11.dtd">
<svg width="100%" height="100%" viewBox="0 0 1000 1000" version="1.1" xmlns="http://www.w3.org/2000/svg" xmlns:xlink="http://www.w3.org/1999/xlink" xml:space="preserve" xmlns:serif="http://www.serif.com/" style="fill-rule:evenodd;clip-rule:evenodd;stroke-linecap:round;stroke-linejoin:round;stroke-miterlimit:1.5;">
    <g transform="matrix(0.890338,0,0,0.890338,79.5896,60.5462)">
        <g transform="matrix(1.83038,0,0,1.83038,-109.49,-582.92)">
            <path d="M248.18,532.917C238.206,531.948 228.163,531.948 218.189,532.917L213.25,556.964C203.691,558.427 194.322,560.937 185.312,564.45L169.011,546.095C159.89,550.242 151.191,555.264 143.039,561.09L150.784,584.384C143.237,590.431 136.379,597.289 130.332,604.836L107.038,597.091C101.212,605.243 96.19,613.941 92.043,623.063L110.398,639.364C106.885,648.374 104.375,657.743 102.912,667.302L78.866,672.241C77.896,682.214 77.896,692.258 78.866,702.231L102.912,707.171C104.375,716.73 106.885,726.099 110.398,735.109L92.043,751.41C96.19,760.531 101.212,769.229 107.038,777.382L130.332,769.636C136.379,777.183 143.237,784.042 150.784,790.088L143.039,813.383C151.191,819.209 159.89,824.23 169.011,828.378L185.312,810.023C194.322,813.536 203.691,816.046 213.25,817.509L218.189,841.555C228.163,842.524 238.206,842.524 248.18,841.555L253.119,817.509C262.678,816.046 272.047,813.536 281.057,810.023L297.358,828.378C306.479,824.23 315.177,819.209 323.33,813.383L315.584,790.088C323.131,784.042 329.99,777.183 336.036,769.636L359.331,777.382C365.157,769.229 370.179,760.531 374.326,751.41L355.971,735.109C359.484,726.099 361.994,716.73 363.457,707.171L387.503,702.231C388.472,692.258 388.472,682.214 387.503,672.241L363.457,667.302C361.994,657.743 359.484,648.374 355.971,639.364L374.326,623.063C370.179,613.941 365.157,605.243 359.331,597.091L336.036,604.836C329.99,597.289 323.131,590.431 315.584,584.384L323.33,561.09C315.177,555.264 306.479,550.242 297.358,546.095L281.057,564.45C272.047,560.937 262.678,558.427 253.119,556.964L248.18,532.917ZM233.184,656.227C250.299,656.227 264.194,670.122 264.194,687.236C264.194,704.351 250.299,718.245 233.184,718.245C216.07,718.245 202.175,704.351 202.175,687.236C202.175,670.122 216.07,656.227 233.184,656.227Z" style="stroke:white;stroke-width:15.95px;"/>
        </g>
        <g transform="matrix(1.17,0,0,1.17,250.496,-594.277)">
            <path d="M248.18,532.917C238.206,531.948 228.163,531.948 218.189,532.917L213.25,556.964C203.691,558.427 194.322,560.937 185.312,564.45L169.011,546.095C159.89,550.242 151.191,555.264 143.039,561.09L150.784,584.384C143.237,590.431 136.379,597.289 130.332,604.836L107.038,597.091C101.212,605.243 96.19,613.941 92.043,623.063L110.398,639.364C106.885,648.374 104.375,657.743 102.912,667.302L78.866,672.241C77.896,682.214 77.896,692.258 78.866,702.231L102.912,707.171C104.375,716.73 106.885,726.099 110.398,735.109L92.043,751.41C96.19,760.531 101.212,769.229 107.038,777.382L130.332,769.636C136.379,777.183 143.237,784.042 150.784,790.088L143.039,813.383C151.191,819.209 159.89,824.23 169.011,828.378L185.312,810.023C194.322,813.536 203.691,816.046 213.25,817.509L218.189,841.555C228.163,842.524 238.206,842.524 248.18,841.555L253.119,817.509C262.678,816.046 272.047,813.536 281.057,810.023L297.358,828.378C306.479,824.23 315.177,819.209 323.33,813.383L315.584,790.088C323.131,784.042 329.99,777.183 336.036,769.636L359.331,777.382C365.157,769.229 370.179,760.531 374.326,751.41L355.971,735.109C359.484,726.099 361.994,716.73 363.457,707.171L387.503,702.231C388.472,692.258 388.472,682.214 387.503,672.241L363.457,667.302C361.994,657.743 359.484,648.374 355.971,639.364L374.326,623.063C370.179,613.941 365.157,605.243 359.331,597.091L336.036,604.836C329.99,597.289 323.131,590.431 315.584,584.384L323.33,561.09C315.177,555.264 306.479,550.242 297.358,546.095L281.057,564.45C272.047,560.937 262.678,558.427 253.119,556.964L248.18,532.917ZM233.184,656.227C250.299,656.227 264.194,670.122 264.194,687.236C264.194,704.351 250.299,718.245 233.184,718.245C216.07,718.245 202.175,704.351 202.175,687.236C202.175,670.122 216.07,656.227 233.184,656.227Z" style="stroke:white;stroke-width:24.95px;"/>
        </g>
        <g transform="matrix(0.585,0,0,0.585,683.736,68.4395)">
            <path d="M248.18,532.917C238.206,531.948 228.163,531.948 218.189,532.917L213.25,556.964C203.691,558.427 194.322,560.937 185.312,564.45L169.011,546.095C159.89,550.242 151.191,555.264 143.039,561.09L150.784,584.384C143.237,590.431 136.379,597.289 130.332,604.836L107.038,597.091C101.212,605.243 96.19,613.941 92.043,623.063L110.398,639.364C106.885,648.374 104.375,657.743 102.912,667.302L78.866,672.241C77.896,682.214 77.896,692.258 78.866,702.231L102.912,707.171C104.375,716.73 106.885,726.099 110.398,735.109L92.043,751.41C96.19,760.531 101.212,769.229 107.038,777.382L130.332,769.636C136.379,777.183 143.237,784.042 150.784,790.088L143.039,813.383C151.191,819.209 159.89,824.23 169.011,828.378L185.312,810.023C194.322,813.536 203.691,816.046 213.25,817.509L218.189,841.555C228.163,842.524 238.206,842.524 248.18,841.555L253.119,817.509C262.678,816.046 272.047,813.536 281.057,810.023L297.358,828.378C306.479,824.23 315.177,819.209 323.33,813.383L315.584,790.088C323.131,784.042 329.99,777.183 336.036,769.636L359.331,777.382C365.157,769.229 370.179,760.531 374.326,751.41L355.971,735.109C359.484,726.099 361.994,716.73 363.457,707.171L387.503,702.231C388.472,692.258 388.472,682.214 387.503,672.241L363.457,667.302C361.994,657.743 359.484,648.374 355.971,639.364L374.326,623.063C370.179,613.941 365.157,605.243 359.331,597.091L336.036,604.836C329.99,597.289 323.131,590.431 315.584,584.384L323.33,561.09C315.177,555.264 306.479,550.242 297.358,546.095L281.057,564.45C272.047,560.937 262.678,558.427 253.119,556.964L248.18,532.917ZM233.184,656.227C250.299,656.227 264.194,670.122 264.194,687.236C264.194,704.351 250.299,718.245 233.184,718.245C216.07,718.245 202.175,704.351 202.175,687.236C202.175,670.122 216.07,656.227 233.184,656.227Z" style="stroke:white;stroke-width:49.91px;"/>
        </g>
    </g>
</svg>
