<?xml version="1.0" encoding="UTF-8" standalone="no"?>
<!DOCTYPE svg PUBLIC "-//W3C//DTD SVG 1.1//EN" "http://www.w3.org/Graphics/SVG/1.1/DTD/svg11.dtd">
<svg width="100%" height="100%" viewBox="0 0 1000 1000" version="1.1" xmlns="http://www.w3.org/2000/svg" xmlns:xlink="http://www.w3.org/1999/xlink" xml:space="preserve" xmlns:serif="http://www.serif.com/" style="fill-rule:evenodd;clip-rule:evenodd;stroke-linecap:round;stroke-linejoin:round;stroke-miterlimit:1.5;">
    <g transform="matrix(1.05833,0,0,1.06071,-68.7048,46.4067)">
        <path d="M578.718,2.005C551.21,-0.668 523.509,-0.668 496.002,2.005L482.378,68.327C456.014,72.361 430.173,79.285 405.323,88.974L360.364,38.349C335.205,49.788 311.215,63.638 288.73,79.707L310.093,143.955C289.277,160.631 270.36,179.548 253.684,200.364L189.436,179.001C173.367,201.486 159.516,225.476 148.078,250.635L198.703,295.594C189.014,320.444 182.09,346.285 178.056,372.65L111.734,386.273C109.061,413.78 109.061,441.482 111.734,468.989L178.056,482.612C182.09,508.977 189.014,534.818 198.703,559.668L148.078,604.627C159.516,629.785 173.367,653.775 189.436,676.261L253.684,654.898C270.36,675.713 289.277,694.63 310.093,711.306L288.73,775.555C311.215,791.623 335.205,805.474 360.364,816.913L405.323,766.288C430.173,775.976 456.014,782.9 482.378,786.935L496.002,853.257C523.509,855.93 551.21,855.93 578.718,853.257L592.341,786.935C618.706,782.9 644.547,775.976 669.396,766.288L714.356,816.913C739.514,805.474 763.504,791.623 785.99,775.555L764.627,711.306C785.442,694.63 804.359,675.713 821.035,654.898L885.284,676.261C901.352,653.775 915.203,629.785 926.642,604.627L876.016,559.668C885.705,534.818 892.629,508.977 896.663,482.612L962.986,468.989C965.659,441.482 965.659,413.78 962.986,386.273L896.663,372.65C892.629,346.285 885.705,320.444 876.016,295.594L926.642,250.635C915.203,225.476 901.352,201.486 885.284,179.001L821.035,200.364C804.359,179.548 785.442,160.631 764.627,143.955L785.99,79.707C763.504,63.638 739.514,49.788 714.356,38.349L669.396,88.974C644.547,79.285 618.706,72.361 592.341,68.327L578.718,2.005ZM537.36,342.105C584.563,342.105 622.886,380.428 622.886,427.631C622.886,474.834 584.563,513.157 537.36,513.157C490.156,513.157 451.834,474.834 451.834,427.631C451.834,380.428 490.156,342.105 537.36,342.105Z" style="stroke:white;stroke-width:35.57px;"/>
    </g>
</svg>
