<?xml version="1.0" encoding="UTF-8" standalone="no"?>
<!DOCTYPE svg PUBLIC "-//W3C//DTD SVG 1.1//EN" "http://www.w3.org/Graphics/SVG/1.1/DTD/svg11.dtd">
<svg width="100%" height="100%" viewBox="0 0 8334 2500" version="1.1" xmlns="http://www.w3.org/2000/svg" xmlns:xlink="http://www.w3.org/1999/xlink" xml:space="preserve" xmlns:serif="http://www.serif.com/" style="fill-rule:evenodd;clip-rule:evenodd;stroke-linejoin:round;stroke-miterlimit:2;">
    <g transform="matrix(38.4286,0,0,38.4286,-16000.7,-3447.27)">
        <rect x="419.61" y="101.312" width="4.736" height="35.791" style="stroke:black;stroke-width:1.13px;"/>
        <path d="M431.328,139.252L435.601,139.887C435.78,141.205 436.276,142.165 437.09,142.767C438.181,143.581 439.67,143.988 441.558,143.988C443.592,143.988 445.163,143.581 446.27,142.767C447.377,141.954 448.125,140.814 448.516,139.35C448.744,138.454 448.85,136.574 448.833,133.71C446.913,135.972 444.52,137.103 441.656,137.103C438.091,137.103 435.332,135.818 433.379,133.246C431.426,130.674 430.45,127.59 430.45,123.993C430.45,121.519 430.897,119.236 431.792,117.145C432.688,115.053 433.986,113.438 435.686,112.299C437.387,111.159 439.385,110.59 441.68,110.59C444.74,110.59 447.263,111.827 449.248,114.301L449.248,111.176L453.301,111.176L453.301,133.588C453.301,137.624 452.89,140.485 452.068,142.169C451.246,143.854 449.944,145.184 448.162,146.161C446.38,147.138 444.187,147.626 441.582,147.626C438.49,147.626 435.992,146.93 434.087,145.538C432.183,144.147 431.263,142.051 431.328,139.252ZM434.966,123.676C434.966,127.077 435.642,129.559 436.993,131.122C438.343,132.684 440.036,133.466 442.071,133.466C444.089,133.466 445.782,132.689 447.149,131.134C448.516,129.58 449.2,127.142 449.2,123.822C449.2,120.648 448.496,118.256 447.088,116.644C445.68,115.033 443.983,114.227 441.997,114.227C440.044,114.227 438.384,115.021 437.017,116.608C435.65,118.195 434.966,120.551 434.966,123.676Z" style="fill-rule:nonzero;stroke:black;stroke-width:1.13px;"/>
        <path d="M477.691,128.754L482.232,129.315C481.516,131.968 480.189,134.027 478.252,135.492C476.315,136.957 473.842,137.689 470.83,137.689C467.038,137.689 464.031,136.522 461.809,134.186C459.588,131.85 458.477,128.575 458.477,124.359C458.477,119.997 459.6,116.612 461.846,114.203C464.092,111.794 467.006,110.59 470.586,110.59C474.053,110.59 476.885,111.77 479.082,114.13C481.28,116.49 482.378,119.81 482.378,124.091C482.378,124.351 482.37,124.742 482.354,125.263L463.018,125.263C463.181,128.111 463.986,130.292 465.435,131.806C466.884,133.319 468.69,134.076 470.855,134.076C472.466,134.076 473.842,133.653 474.981,132.807C476.12,131.96 477.023,130.609 477.691,128.754ZM463.262,121.649L477.74,121.649C477.544,119.468 476.991,117.833 476.079,116.742C474.68,115.049 472.865,114.203 470.635,114.203C468.617,114.203 466.92,114.878 465.545,116.229C464.169,117.58 463.409,119.387 463.262,121.649Z" style="fill-rule:nonzero;stroke:black;stroke-width:1.13px;"/>
        <path d="M487.749,137.103L487.749,111.176L491.704,111.176L491.704,114.862C493.609,112.014 496.359,110.59 499.956,110.59C501.519,110.59 502.955,110.87 504.266,111.432C505.576,111.994 506.556,112.73 507.207,113.641C507.858,114.553 508.314,115.635 508.575,116.889C508.737,117.702 508.819,119.127 508.819,121.161L508.819,137.103L504.424,137.103L504.424,121.332C504.424,119.542 504.253,118.203 503.911,117.316C503.57,116.429 502.963,115.721 502.093,115.192C501.222,114.663 500.201,114.398 499.029,114.398C497.157,114.398 495.542,114.992 494.182,116.181C492.823,117.369 492.144,119.623 492.144,122.943L492.144,137.103L487.749,137.103Z" style="fill-rule:nonzero;stroke:black;stroke-width:1.13px;"/>
        <path d="M532.476,127.606L536.797,128.168C536.325,131.146 535.117,133.478 533.172,135.162C531.227,136.847 528.838,137.689 526.006,137.689C522.458,137.689 519.606,136.53 517.449,134.21C515.293,131.891 514.214,128.567 514.214,124.237C514.214,121.438 514.678,118.988 515.606,116.889C516.534,114.789 517.946,113.214 519.842,112.164C521.738,111.115 523.801,110.59 526.031,110.59C528.846,110.59 531.149,111.302 532.94,112.726C534.73,114.15 535.878,116.172 536.382,118.793L532.11,119.452C531.703,117.711 530.983,116.4 529.949,115.521C528.916,114.642 527.666,114.203 526.202,114.203C523.988,114.203 522.189,114.996 520.806,116.583C519.423,118.17 518.731,120.681 518.731,124.115C518.731,127.598 519.398,130.129 520.733,131.708C522.067,133.287 523.809,134.076 525.957,134.076C527.683,134.076 529.123,133.547 530.279,132.489C531.434,131.431 532.167,129.804 532.476,127.606Z" style="fill-rule:nonzero;stroke:black;stroke-width:1.13px;"/>
        <path d="M540.362,147.089L539.873,142.963C540.834,143.223 541.672,143.353 542.388,143.353C543.365,143.353 544.146,143.191 544.732,142.865C545.318,142.54 545.798,142.084 546.172,141.498C546.449,141.058 546.897,139.968 547.515,138.226C547.596,137.982 547.727,137.624 547.906,137.152L538.067,111.176L542.803,111.176L548.199,126.19C548.898,128.095 549.525,130.097 550.078,132.196C550.583,130.178 551.185,128.209 551.885,126.288L557.427,111.176L561.822,111.176L551.958,137.543C550.9,140.391 550.078,142.352 549.493,143.427C548.711,144.875 547.816,145.937 546.807,146.613C545.798,147.288 544.593,147.626 543.194,147.626C542.347,147.626 541.403,147.447 540.362,147.089Z" style="fill-rule:nonzero;stroke:black;stroke-width:1.13px;"/>
        <rect x="563.091" y="132.099" width="5.005" height="5.005" style="stroke:black;stroke-width:1.13px;"/>
        <rect x="577.105" y="101.312" width="4.736" height="35.791" style="stroke:black;stroke-width:1.13px;"/>
        <g transform="matrix(0.0265959,0,0,0.0265959,581.999,94.9132)">
            <g id="Unbenannt-6.svg" serif:id="Unbenannt 6.svg">
                <g>
                    <g>
                        <g transform="matrix(1,0,0,1,2.93511,36.3409)">
                            <path d="M997.065,103.333L1644.64,415.187L1804.57,1115.92L1356.44,1677.86L637.69,1677.86L189.557,1115.92L349.494,415.187L997.065,103.333Z" style="stroke:black;stroke-width:43.29px;stroke-linecap:round;stroke-miterlimit:1.5;"/>
                        </g>
                        <g transform="matrix(0.906069,0,0,0.906069,96.5906,125.415)">
                            <path d="M997.065,103.333L1644.64,415.187L1804.57,1115.92L1356.44,1677.86L637.69,1677.86L189.557,1115.92L349.494,415.187L997.065,103.333Z" style="stroke:black;stroke-width:47.77px;stroke-linecap:round;stroke-miterlimit:1.5;"/>
                        </g>
                    </g>
                    <g transform="matrix(1.02246,0,0,1.02246,-20.0972,-9.84924)">
                        <g transform="matrix(1,0,0,1,2.93511,36.3409)">
                            <path d="M997.065,103.333L1644.64,415.187L1804.57,1115.92L1356.44,1677.86L637.69,1677.86L189.557,1115.92L349.494,415.187L997.065,103.333Z" style="stroke:black;stroke-width:43.29px;stroke-linecap:round;stroke-miterlimit:1.5;"/>
                        </g>
                        <g transform="matrix(0.906069,0,0,0.906069,96.5906,125.415)">
                            <path d="M997.065,103.333L1644.64,415.187L1804.57,1115.92L1356.44,1677.86L637.69,1677.86L189.557,1115.92L349.494,415.187L997.065,103.333Z" style="stroke:black;stroke-width:47.77px;stroke-linecap:round;stroke-miterlimit:1.5;"/>
                        </g>
                    </g>
                    <g transform="matrix(0.906069,0,0,0.906069,96.5906,125.415)">
                        <path d="M997.065,103.333L1644.64,415.187L1804.57,1115.92L1356.44,1677.86L637.69,1677.86L189.557,1115.92L349.494,415.187L997.065,103.333Z" style="stroke:black;stroke-width:47.77px;stroke-linecap:round;stroke-miterlimit:1.5;"/>
                    </g>
                    <g>
                        <circle cx="1000" cy="1000" r="303.2" style="stroke:black;stroke-width:43.29px;"/>
                        <g transform="matrix(0.567842,0,0,0.567842,286.692,313.331)">
                            <circle cx="1256.17" cy="1209.26" r="533.951" style="stroke:black;stroke-width:76.23px;stroke-linecap:round;stroke-miterlimit:1.5;"/>
                        </g>
                        <g transform="matrix(1,0,0,1,-29.5394,2.05692)">
                            <g transform="matrix(0.200839,0,0,0.200839,551.75,495.012)">
                                <circle cx="1256.17" cy="1209.26" r="533.951" style="stroke:black;stroke-width:215.53px;stroke-linecap:round;stroke-miterlimit:1.5;"/>
                            </g>
                            <g transform="matrix(0.200839,0,0,0.200839,1002.75,495.012)">
                                <circle cx="1256.17" cy="1209.26" r="533.951" style="stroke:black;stroke-width:215.53px;stroke-linecap:round;stroke-miterlimit:1.5;"/>
                            </g>
                        </g>
                    </g>
                    <g>
                        <circle cx="1000" cy="1000" r="303.2" style="stroke:black;stroke-width:42.4px;"/>
                        <g transform="matrix(0.567842,0,0,0.567842,286.692,313.331)">
                            <circle cx="1256.17" cy="1209.26" r="533.951" style="stroke:black;stroke-width:76.23px;stroke-linecap:round;stroke-miterlimit:1.5;"/>
                        </g>
                        <g transform="matrix(1,0,0,1,-29.5394,2.05692)">
                            <g transform="matrix(0.200839,0,0,0.200839,551.75,495.012)">
                                <circle cx="1256.17" cy="1209.26" r="533.951" style="stroke:black;stroke-width:215.53px;stroke-linecap:round;stroke-miterlimit:1.5;"/>
                            </g>
                            <g transform="matrix(0.200839,0,0,0.200839,1002.75,495.012)">
                                <circle cx="1256.17" cy="1209.26" r="533.951" style="stroke:black;stroke-width:215.53px;stroke-linecap:round;stroke-miterlimit:1.5;"/>
                            </g>
                        </g>
                        <g transform="matrix(1,0,0,1,-29.5394,2.05692)">
                            <g transform="matrix(0.200839,0,0,0.200839,551.75,495.012)">
                                <circle cx="1256.17" cy="1209.26" r="533.951" style="stroke:black;stroke-width:215.53px;stroke-linecap:round;stroke-miterlimit:1.5;"/>
                            </g>
                            <g transform="matrix(0.200839,0,0,0.200839,1002.75,495.012)">
                                <circle cx="1256.17" cy="1209.26" r="533.951" style="stroke:black;stroke-width:215.53px;stroke-linecap:round;stroke-miterlimit:1.5;"/>
                            </g>
                        </g>
                    </g>
                </g>
            </g>
        </g>
    </g>
    <g transform="matrix(38.4286,0,0,38.4286,-16019,-3440.14)">
        <rect x="419.61" y="101.312" width="4.736" height="35.791" style="fill:url(#_Linear1);stroke:white;stroke-width:1.13px;"/>
        <path d="M431.328,139.252L435.601,139.887C435.78,141.205 436.276,142.165 437.09,142.767C438.181,143.581 439.67,143.988 441.558,143.988C443.592,143.988 445.163,143.581 446.27,142.767C447.377,141.954 448.125,140.814 448.516,139.35C448.744,138.454 448.85,136.574 448.833,133.71C446.913,135.972 444.52,137.103 441.656,137.103C438.091,137.103 435.332,135.818 433.379,133.246C431.426,130.674 430.45,127.59 430.45,123.993C430.45,121.519 430.897,119.236 431.792,117.145C432.688,115.053 433.986,113.438 435.686,112.299C437.387,111.159 439.385,110.59 441.68,110.59C444.74,110.59 447.263,111.827 449.248,114.301L449.248,111.176L453.301,111.176L453.301,133.588C453.301,137.624 452.89,140.485 452.068,142.169C451.246,143.854 449.944,145.184 448.162,146.161C446.38,147.138 444.187,147.626 441.582,147.626C438.49,147.626 435.992,146.93 434.087,145.538C432.183,144.147 431.263,142.051 431.328,139.252ZM434.966,123.676C434.966,127.077 435.642,129.559 436.993,131.122C438.343,132.684 440.036,133.466 442.071,133.466C444.089,133.466 445.782,132.689 447.149,131.134C448.516,129.58 449.2,127.142 449.2,123.822C449.2,120.648 448.496,118.256 447.088,116.644C445.68,115.033 443.983,114.227 441.997,114.227C440.044,114.227 438.384,115.021 437.017,116.608C435.65,118.195 434.966,120.551 434.966,123.676Z" style="fill:url(#_Linear2);fill-rule:nonzero;stroke:white;stroke-width:1.13px;"/>
        <path d="M477.691,128.754L482.232,129.315C481.516,131.968 480.189,134.027 478.252,135.492C476.315,136.957 473.842,137.689 470.83,137.689C467.038,137.689 464.031,136.522 461.809,134.186C459.588,131.85 458.477,128.575 458.477,124.359C458.477,119.997 459.6,116.612 461.846,114.203C464.092,111.794 467.006,110.59 470.586,110.59C474.053,110.59 476.885,111.77 479.082,114.13C481.28,116.49 482.378,119.81 482.378,124.091C482.378,124.351 482.37,124.742 482.354,125.263L463.018,125.263C463.181,128.111 463.986,130.292 465.435,131.806C466.884,133.319 468.69,134.076 470.855,134.076C472.466,134.076 473.842,133.653 474.981,132.807C476.12,131.96 477.023,130.609 477.691,128.754ZM463.262,121.649L477.74,121.649C477.544,119.468 476.991,117.833 476.079,116.742C474.68,115.049 472.865,114.203 470.635,114.203C468.617,114.203 466.92,114.878 465.545,116.229C464.169,117.58 463.409,119.387 463.262,121.649Z" style="fill:url(#_Linear3);fill-rule:nonzero;stroke:white;stroke-width:1.13px;"/>
        <path d="M487.749,137.103L487.749,111.176L491.704,111.176L491.704,114.862C493.609,112.014 496.359,110.59 499.956,110.59C501.519,110.59 502.955,110.87 504.266,111.432C505.576,111.994 506.556,112.73 507.207,113.641C507.858,114.553 508.314,115.635 508.575,116.889C508.737,117.702 508.819,119.127 508.819,121.161L508.819,137.103L504.424,137.103L504.424,121.332C504.424,119.542 504.253,118.203 503.911,117.316C503.57,116.429 502.963,115.721 502.093,115.192C501.222,114.663 500.201,114.398 499.029,114.398C497.157,114.398 495.542,114.992 494.182,116.181C492.823,117.369 492.144,119.623 492.144,122.943L492.144,137.103L487.749,137.103Z" style="fill:url(#_Linear4);fill-rule:nonzero;stroke:white;stroke-width:1.13px;"/>
        <path d="M532.476,127.606L536.797,128.168C536.325,131.146 535.117,133.478 533.172,135.162C531.227,136.847 528.838,137.689 526.006,137.689C522.458,137.689 519.606,136.53 517.449,134.21C515.293,131.891 514.214,128.567 514.214,124.237C514.214,121.438 514.678,118.988 515.606,116.889C516.534,114.789 517.946,113.214 519.842,112.164C521.738,111.115 523.801,110.59 526.031,110.59C528.846,110.59 531.149,111.302 532.94,112.726C534.73,114.15 535.878,116.172 536.382,118.793L532.11,119.452C531.703,117.711 530.983,116.4 529.949,115.521C528.916,114.642 527.666,114.203 526.202,114.203C523.988,114.203 522.189,114.996 520.806,116.583C519.423,118.17 518.731,120.681 518.731,124.115C518.731,127.598 519.398,130.129 520.733,131.708C522.067,133.287 523.809,134.076 525.957,134.076C527.683,134.076 529.123,133.547 530.279,132.489C531.434,131.431 532.167,129.804 532.476,127.606Z" style="fill:url(#_Linear5);fill-rule:nonzero;stroke:white;stroke-width:1.13px;"/>
        <path d="M540.362,147.089L539.873,142.963C540.834,143.223 541.672,143.353 542.388,143.353C543.365,143.353 544.146,143.191 544.732,142.865C545.318,142.54 545.798,142.084 546.172,141.498C546.449,141.058 546.897,139.968 547.515,138.226C547.596,137.982 547.727,137.624 547.906,137.152L538.067,111.176L542.803,111.176L548.199,126.19C548.898,128.095 549.525,130.097 550.078,132.196C550.583,130.178 551.185,128.209 551.885,126.288L557.427,111.176L561.822,111.176L551.958,137.543C550.9,140.391 550.078,142.352 549.493,143.427C548.711,144.875 547.816,145.937 546.807,146.613C545.798,147.288 544.593,147.626 543.194,147.626C542.347,147.626 541.403,147.447 540.362,147.089Z" style="fill:url(#_Linear6);fill-rule:nonzero;stroke:white;stroke-width:1.13px;"/>
        <rect x="563.091" y="132.099" width="5.005" height="5.005" style="fill:url(#_Linear7);stroke:white;stroke-width:1.13px;"/>
        <rect x="577.105" y="101.312" width="4.736" height="35.791" style="fill:url(#_Linear8);stroke:white;stroke-width:1.13px;"/>
        <g transform="matrix(0.0260505,0,0,0.0260505,581.84,95.5249)">
            <g id="Unbenannt-6.svg1" serif:id="Unbenannt 6.svg">
                <g>
                    <g>
                        <g transform="matrix(1,0,0,1,2.93511,36.3409)">
                            <path d="M997.065,103.333L1644.64,415.187L1804.57,1115.92L1356.44,1677.86L637.69,1677.86L189.557,1115.92L349.494,415.187L997.065,103.333Z" style="fill:white;stroke:white;stroke-width:115.33px;stroke-linecap:round;stroke-miterlimit:1.5;"/>
                        </g>
                        <g transform="matrix(0.906069,0,0,0.906069,96.5906,125.415)">
                            <path d="M997.065,103.333L1644.64,415.187L1804.57,1115.92L1356.44,1677.86L637.69,1677.86L189.557,1115.92L349.494,415.187L997.065,103.333Z" style="fill:white;stroke:white;stroke-width:127.29px;stroke-linecap:round;stroke-miterlimit:1.5;"/>
                        </g>
                    </g>
                    <g>
                        <g transform="matrix(1,0,0,1,2.93511,36.3409)">
                            <path d="M997.065,103.333L1644.64,415.187L1804.57,1115.92L1356.44,1677.86L637.69,1677.86L189.557,1115.92L349.494,415.187L997.065,103.333Z" style="stroke:black;stroke-width:32.08px;stroke-linecap:round;stroke-miterlimit:1.5;"/>
                        </g>
                        <g transform="matrix(0.906069,0,0,0.906069,96.5906,125.415)">
                            <path d="M997.065,103.333L1644.64,415.187L1804.57,1115.92L1356.44,1677.86L637.69,1677.86L189.557,1115.92L349.494,415.187L997.065,103.333Z" style="stroke:black;stroke-width:35.41px;stroke-linecap:round;stroke-miterlimit:1.5;"/>
                        </g>
                    </g>
                    <g transform="matrix(0.906069,0,0,0.906069,96.5906,125.415)">
                        <path d="M997.065,103.333L1644.64,415.187L1804.57,1115.92L1356.44,1677.86L637.69,1677.86L189.557,1115.92L349.494,415.187L997.065,103.333Z" style="fill:url(#_Linear9);stroke:black;stroke-width:35.41px;stroke-linecap:round;stroke-miterlimit:1.5;"/>
                    </g>
                    <g>
                        <circle cx="1000" cy="1000" r="303.2" style="fill:rgb(2,1,0);stroke:white;stroke-width:83.33px;"/>
                        <g transform="matrix(0.567842,0,0,0.567842,286.692,313.331)">
                            <circle cx="1256.17" cy="1209.26" r="533.951" style="fill:none;stroke:white;stroke-width:146.75px;stroke-linecap:round;stroke-miterlimit:1.5;"/>
                        </g>
                        <g transform="matrix(1,0,0,1,-29.5394,2.05692)">
                            <g transform="matrix(0.200839,0,0,0.200839,551.75,495.012)">
                                <circle cx="1256.17" cy="1209.26" r="533.951" style="stroke:white;stroke-width:414.93px;stroke-linecap:round;stroke-miterlimit:1.5;"/>
                            </g>
                            <g transform="matrix(0.200839,0,0,0.200839,1002.75,495.012)">
                                <circle cx="1256.17" cy="1209.26" r="533.951" style="stroke:white;stroke-width:414.93px;stroke-linecap:round;stroke-miterlimit:1.5;"/>
                            </g>
                        </g>
                    </g>
                    <g>
                        <circle cx="1000" cy="1000" r="303.2" style="fill:rgb(2,1,0);"/>
                        <g transform="matrix(0.567842,0,0,0.567842,286.692,313.331)">
                            <circle cx="1256.17" cy="1209.26" r="533.951" style="fill:none;stroke:black;stroke-width:56.3px;stroke-linecap:round;stroke-miterlimit:1.5;"/>
                        </g>
                        <g transform="matrix(1,0,0,1,-29.5394,2.05692)">
                            <g transform="matrix(0.200839,0,0,0.200839,551.75,495.012)">
                                <circle cx="1256.17" cy="1209.26" r="533.951" style="stroke:white;stroke-width:414.93px;stroke-linecap:round;stroke-miterlimit:1.5;"/>
                            </g>
                            <g transform="matrix(0.200839,0,0,0.200839,1002.75,495.012)">
                                <circle cx="1256.17" cy="1209.26" r="533.951" style="stroke:white;stroke-width:414.93px;stroke-linecap:round;stroke-miterlimit:1.5;"/>
                            </g>
                        </g>
                        <g transform="matrix(1,0,0,1,-29.5394,2.05692)">
                            <g transform="matrix(0.200839,0,0,0.200839,551.75,495.012)">
                                <circle cx="1256.17" cy="1209.26" r="533.951" style="stroke:black;stroke-width:112.05px;stroke-linecap:round;stroke-miterlimit:1.5;"/>
                            </g>
                            <g transform="matrix(0.200839,0,0,0.200839,1002.75,495.012)">
                                <circle cx="1256.17" cy="1209.26" r="533.951" style="stroke:black;stroke-width:112.05px;stroke-linecap:round;stroke-miterlimit:1.5;"/>
                            </g>
                        </g>
                    </g>
                </g>
            </g>
        </g>
    </g>
    <defs>
        <linearGradient id="_Linear1" x1="0" y1="0" x2="1" y2="0" gradientUnits="userSpaceOnUse" gradientTransform="matrix(249.77,0,0,249.77,396.409,124.152)"><stop offset="0" style="stop-color:black;stop-opacity:1"/><stop offset="1" style="stop-color:black;stop-opacity:1"/></linearGradient>
        <linearGradient id="_Linear2" x1="0" y1="0" x2="1" y2="0" gradientUnits="userSpaceOnUse" gradientTransform="matrix(249.77,0,0,249.77,396.409,124.152)"><stop offset="0" style="stop-color:black;stop-opacity:1"/><stop offset="1" style="stop-color:black;stop-opacity:1"/></linearGradient>
        <linearGradient id="_Linear3" x1="0" y1="0" x2="1" y2="0" gradientUnits="userSpaceOnUse" gradientTransform="matrix(249.77,0,0,249.77,396.409,124.152)"><stop offset="0" style="stop-color:black;stop-opacity:1"/><stop offset="1" style="stop-color:black;stop-opacity:1"/></linearGradient>
        <linearGradient id="_Linear4" x1="0" y1="0" x2="1" y2="0" gradientUnits="userSpaceOnUse" gradientTransform="matrix(249.77,0,0,249.77,396.409,124.152)"><stop offset="0" style="stop-color:black;stop-opacity:1"/><stop offset="1" style="stop-color:black;stop-opacity:1"/></linearGradient>
        <linearGradient id="_Linear5" x1="0" y1="0" x2="1" y2="0" gradientUnits="userSpaceOnUse" gradientTransform="matrix(249.77,0,0,249.77,396.409,124.152)"><stop offset="0" style="stop-color:black;stop-opacity:1"/><stop offset="1" style="stop-color:black;stop-opacity:1"/></linearGradient>
        <linearGradient id="_Linear6" x1="0" y1="0" x2="1" y2="0" gradientUnits="userSpaceOnUse" gradientTransform="matrix(249.77,0,0,249.77,396.409,124.152)"><stop offset="0" style="stop-color:black;stop-opacity:1"/><stop offset="1" style="stop-color:black;stop-opacity:1"/></linearGradient>
        <linearGradient id="_Linear7" x1="0" y1="0" x2="1" y2="0" gradientUnits="userSpaceOnUse" gradientTransform="matrix(249.77,0,0,249.77,396.409,124.152)"><stop offset="0" style="stop-color:black;stop-opacity:1"/><stop offset="1" style="stop-color:black;stop-opacity:1"/></linearGradient>
        <linearGradient id="_Linear8" x1="0" y1="0" x2="1" y2="0" gradientUnits="userSpaceOnUse" gradientTransform="matrix(249.77,0,0,249.77,396.409,124.152)"><stop offset="0" style="stop-color:black;stop-opacity:1"/><stop offset="1" style="stop-color:black;stop-opacity:1"/></linearGradient>
        <linearGradient id="_Linear9" x1="0" y1="0" x2="1" y2="0" gradientUnits="userSpaceOnUse" gradientTransform="matrix(1555.56,1490.39,-1490.39,1555.56,219.282,187.47)"><stop offset="0" style="stop-color:rgb(0,255,248);stop-opacity:1"/><stop offset="1" style="stop-color:rgb(188,0,255);stop-opacity:1"/></linearGradient>
    </defs>
</svg>
